%TF.GenerationSoftware,KiCad,Pcbnew,(5.1.9)-1*%
%TF.CreationDate,2021-04-16T00:55:01+02:00*%
%TF.ProjectId,13_TOR_N,31335f54-4f52-45f4-9e2e-6b696361645f,rev?*%
%TF.SameCoordinates,Original*%
%TF.FileFunction,Soldermask,Top*%
%TF.FilePolarity,Negative*%
%FSLAX46Y46*%
G04 Gerber Fmt 4.6, Leading zero omitted, Abs format (unit mm)*
G04 Created by KiCad (PCBNEW (5.1.9)-1) date 2021-04-16 00:55:01*
%MOMM*%
%LPD*%
G01*
G04 APERTURE LIST*
%TA.AperFunction,Profile*%
%ADD10C,0.050000*%
%TD*%
%ADD11C,1.624000*%
%ADD12C,1.100000*%
G04 APERTURE END LIST*
D10*
X115570000Y-60960000D02*
X120650000Y-60960000D01*
X115570000Y-62230000D02*
X115570000Y-60960000D01*
X114300000Y-62230000D02*
X115570000Y-62230000D01*
X114300000Y-60960000D02*
X114300000Y-62230000D01*
X115570000Y-81280000D02*
X120650000Y-81280000D01*
X115570000Y-80010000D02*
X115570000Y-81280000D01*
X114300000Y-80010000D02*
X115570000Y-80010000D01*
X114300000Y-81280000D02*
X114300000Y-80010000D01*
X101600000Y-62230000D02*
X101600000Y-60960000D01*
X100330000Y-62230000D02*
X101600000Y-62230000D01*
X100330000Y-64770000D02*
X100330000Y-62230000D01*
X101600000Y-64770000D02*
X100330000Y-64770000D01*
X100330000Y-72390000D02*
X100330000Y-67310000D01*
X101600000Y-72390000D02*
X100330000Y-72390000D01*
X101600000Y-74930000D02*
X101600000Y-72390000D01*
X100330000Y-74930000D02*
X101600000Y-74930000D01*
X120650000Y-60960000D02*
X120650000Y-81280000D01*
X101600000Y-60960000D02*
X114300000Y-60960000D01*
X101600000Y-80010000D02*
X101600000Y-81280000D01*
X100330000Y-80010000D02*
X101600000Y-80010000D01*
X101600000Y-64770000D02*
X101600000Y-67310000D01*
X101600000Y-67310000D02*
X100330000Y-67310000D01*
X114300000Y-81280000D02*
X101600000Y-81280000D01*
X100330000Y-80010000D02*
X100330000Y-74930000D01*
%TO.C,J1*%
G36*
G01*
X104182000Y-70270000D02*
X104182000Y-71970000D01*
G75*
G02*
X104132000Y-72020000I-50000J0D01*
G01*
X101608000Y-72020000D01*
G75*
G02*
X101558000Y-71970000I0J50000D01*
G01*
X101558000Y-70270000D01*
G75*
G02*
X101608000Y-70220000I50000J0D01*
G01*
X104132000Y-70220000D01*
G75*
G02*
X104182000Y-70270000I0J-50000D01*
G01*
G37*
G36*
G01*
X104182000Y-70270000D02*
X104182000Y-71970000D01*
G75*
G02*
X104132000Y-72020000I-50000J0D01*
G01*
X101608000Y-72020000D01*
G75*
G02*
X101558000Y-71970000I0J50000D01*
G01*
X101558000Y-70270000D01*
G75*
G02*
X101608000Y-70220000I50000J0D01*
G01*
X104132000Y-70220000D01*
G75*
G02*
X104182000Y-70270000I0J-50000D01*
G01*
G37*
D11*
X101600000Y-71120000D03*
G36*
G01*
X105040000Y-70270000D02*
X105040000Y-71970000D01*
G75*
G02*
X104990000Y-72020000I-50000J0D01*
G01*
X103290000Y-72020000D01*
G75*
G02*
X103240000Y-71970000I0J50000D01*
G01*
X103240000Y-70270000D01*
G75*
G02*
X103290000Y-70220000I50000J0D01*
G01*
X104990000Y-70220000D01*
G75*
G02*
X105040000Y-70270000I0J-50000D01*
G01*
G37*
%TD*%
%TO.C,J2*%
G36*
G01*
X105040000Y-62650000D02*
X105040000Y-64350000D01*
G75*
G02*
X104990000Y-64400000I-50000J0D01*
G01*
X103290000Y-64400000D01*
G75*
G02*
X103240000Y-64350000I0J50000D01*
G01*
X103240000Y-62650000D01*
G75*
G02*
X103290000Y-62600000I50000J0D01*
G01*
X104990000Y-62600000D01*
G75*
G02*
X105040000Y-62650000I0J-50000D01*
G01*
G37*
X101600000Y-63500000D03*
G36*
G01*
X104182000Y-62650000D02*
X104182000Y-64350000D01*
G75*
G02*
X104132000Y-64400000I-50000J0D01*
G01*
X101608000Y-64400000D01*
G75*
G02*
X101558000Y-64350000I0J50000D01*
G01*
X101558000Y-62650000D01*
G75*
G02*
X101608000Y-62600000I50000J0D01*
G01*
X104132000Y-62600000D01*
G75*
G02*
X104182000Y-62650000I0J-50000D01*
G01*
G37*
G36*
G01*
X104182000Y-62650000D02*
X104182000Y-64350000D01*
G75*
G02*
X104132000Y-64400000I-50000J0D01*
G01*
X101608000Y-64400000D01*
G75*
G02*
X101558000Y-64350000I0J50000D01*
G01*
X101558000Y-62650000D01*
G75*
G02*
X101608000Y-62600000I50000J0D01*
G01*
X104132000Y-62600000D01*
G75*
G02*
X104182000Y-62650000I0J-50000D01*
G01*
G37*
%TD*%
%TO.C,J3*%
G36*
G01*
X105040000Y-75350000D02*
X105040000Y-77050000D01*
G75*
G02*
X104990000Y-77100000I-50000J0D01*
G01*
X103290000Y-77100000D01*
G75*
G02*
X103240000Y-77050000I0J50000D01*
G01*
X103240000Y-75350000D01*
G75*
G02*
X103290000Y-75300000I50000J0D01*
G01*
X104990000Y-75300000D01*
G75*
G02*
X105040000Y-75350000I0J-50000D01*
G01*
G37*
X101600000Y-76200000D03*
G36*
G01*
X104182000Y-75350000D02*
X104182000Y-77050000D01*
G75*
G02*
X104132000Y-77100000I-50000J0D01*
G01*
X101608000Y-77100000D01*
G75*
G02*
X101558000Y-77050000I0J50000D01*
G01*
X101558000Y-75350000D01*
G75*
G02*
X101608000Y-75300000I50000J0D01*
G01*
X104132000Y-75300000D01*
G75*
G02*
X104182000Y-75350000I0J-50000D01*
G01*
G37*
G36*
G01*
X104182000Y-75350000D02*
X104182000Y-77050000D01*
G75*
G02*
X104132000Y-77100000I-50000J0D01*
G01*
X101608000Y-77100000D01*
G75*
G02*
X101558000Y-77050000I0J50000D01*
G01*
X101558000Y-75350000D01*
G75*
G02*
X101608000Y-75300000I50000J0D01*
G01*
X104132000Y-75300000D01*
G75*
G02*
X104182000Y-75350000I0J-50000D01*
G01*
G37*
%TD*%
%TO.C,R1*%
G36*
G01*
X110310000Y-63762500D02*
X110310000Y-63237500D01*
G75*
G02*
X110572500Y-62975000I262500J0D01*
G01*
X111197500Y-62975000D01*
G75*
G02*
X111460000Y-63237500I0J-262500D01*
G01*
X111460000Y-63762500D01*
G75*
G02*
X111197500Y-64025000I-262500J0D01*
G01*
X110572500Y-64025000D01*
G75*
G02*
X110310000Y-63762500I0J262500D01*
G01*
G37*
G36*
G01*
X112060000Y-63762500D02*
X112060000Y-63237500D01*
G75*
G02*
X112322500Y-62975000I262500J0D01*
G01*
X112947500Y-62975000D01*
G75*
G02*
X113210000Y-63237500I0J-262500D01*
G01*
X113210000Y-63762500D01*
G75*
G02*
X112947500Y-64025000I-262500J0D01*
G01*
X112322500Y-64025000D01*
G75*
G02*
X112060000Y-63762500I0J262500D01*
G01*
G37*
%TD*%
%TO.C,R2*%
G36*
G01*
X108250000Y-63762500D02*
X108250000Y-63237500D01*
G75*
G02*
X108512500Y-62975000I262500J0D01*
G01*
X109137500Y-62975000D01*
G75*
G02*
X109400000Y-63237500I0J-262500D01*
G01*
X109400000Y-63762500D01*
G75*
G02*
X109137500Y-64025000I-262500J0D01*
G01*
X108512500Y-64025000D01*
G75*
G02*
X108250000Y-63762500I0J262500D01*
G01*
G37*
G36*
G01*
X106500000Y-63762500D02*
X106500000Y-63237500D01*
G75*
G02*
X106762500Y-62975000I262500J0D01*
G01*
X107387500Y-62975000D01*
G75*
G02*
X107650000Y-63237500I0J-262500D01*
G01*
X107650000Y-63762500D01*
G75*
G02*
X107387500Y-64025000I-262500J0D01*
G01*
X106762500Y-64025000D01*
G75*
G02*
X106500000Y-63762500I0J262500D01*
G01*
G37*
%TD*%
%TO.C,J4*%
G36*
G01*
X104182000Y-67730000D02*
X104182000Y-69430000D01*
G75*
G02*
X104132000Y-69480000I-50000J0D01*
G01*
X101608000Y-69480000D01*
G75*
G02*
X101558000Y-69430000I0J50000D01*
G01*
X101558000Y-67730000D01*
G75*
G02*
X101608000Y-67680000I50000J0D01*
G01*
X104132000Y-67680000D01*
G75*
G02*
X104182000Y-67730000I0J-50000D01*
G01*
G37*
G36*
G01*
X104182000Y-67730000D02*
X104182000Y-69430000D01*
G75*
G02*
X104132000Y-69480000I-50000J0D01*
G01*
X101608000Y-69480000D01*
G75*
G02*
X101558000Y-69430000I0J50000D01*
G01*
X101558000Y-67730000D01*
G75*
G02*
X101608000Y-67680000I50000J0D01*
G01*
X104132000Y-67680000D01*
G75*
G02*
X104182000Y-67730000I0J-50000D01*
G01*
G37*
X101600000Y-68580000D03*
G36*
G01*
X105040000Y-67730000D02*
X105040000Y-69430000D01*
G75*
G02*
X104990000Y-69480000I-50000J0D01*
G01*
X103290000Y-69480000D01*
G75*
G02*
X103240000Y-69430000I0J50000D01*
G01*
X103240000Y-67730000D01*
G75*
G02*
X103290000Y-67680000I50000J0D01*
G01*
X104990000Y-67680000D01*
G75*
G02*
X105040000Y-67730000I0J-50000D01*
G01*
G37*
%TD*%
%TO.C,J5*%
G36*
G01*
X105040000Y-77890000D02*
X105040000Y-79590000D01*
G75*
G02*
X104990000Y-79640000I-50000J0D01*
G01*
X103290000Y-79640000D01*
G75*
G02*
X103240000Y-79590000I0J50000D01*
G01*
X103240000Y-77890000D01*
G75*
G02*
X103290000Y-77840000I50000J0D01*
G01*
X104990000Y-77840000D01*
G75*
G02*
X105040000Y-77890000I0J-50000D01*
G01*
G37*
X101600000Y-78740000D03*
G36*
G01*
X104182000Y-77890000D02*
X104182000Y-79590000D01*
G75*
G02*
X104132000Y-79640000I-50000J0D01*
G01*
X101608000Y-79640000D01*
G75*
G02*
X101558000Y-79590000I0J50000D01*
G01*
X101558000Y-77890000D01*
G75*
G02*
X101608000Y-77840000I50000J0D01*
G01*
X104132000Y-77840000D01*
G75*
G02*
X104182000Y-77890000I0J-50000D01*
G01*
G37*
G36*
G01*
X104182000Y-77890000D02*
X104182000Y-79590000D01*
G75*
G02*
X104132000Y-79640000I-50000J0D01*
G01*
X101608000Y-79640000D01*
G75*
G02*
X101558000Y-79590000I0J50000D01*
G01*
X101558000Y-77890000D01*
G75*
G02*
X101608000Y-77840000I50000J0D01*
G01*
X104132000Y-77840000D01*
G75*
G02*
X104182000Y-77890000I0J-50000D01*
G01*
G37*
%TD*%
D12*
%TO.C,H1*%
X115570000Y-63500000D03*
%TD*%
%TO.C,H2*%
X115570000Y-66040000D03*
%TD*%
%TO.C,H4*%
X115570000Y-78740000D03*
%TD*%
%TO.C,H5*%
X115570000Y-71120000D03*
%TD*%
%TO.C,H6*%
X115570000Y-76200000D03*
%TD*%
%TO.C,H7*%
X115570000Y-68580000D03*
%TD*%
%TO.C,H8*%
X115570000Y-73660000D03*
%TD*%
%TO.C,Q1*%
G36*
G01*
X110950000Y-70160000D02*
X111300000Y-70160000D01*
G75*
G02*
X111475000Y-70335000I0J-175000D01*
G01*
X111475000Y-72035000D01*
G75*
G02*
X111300000Y-72210000I-175000J0D01*
G01*
X110950000Y-72210000D01*
G75*
G02*
X110775000Y-72035000I0J175000D01*
G01*
X110775000Y-70335000D01*
G75*
G02*
X110950000Y-70160000I175000J0D01*
G01*
G37*
G36*
G01*
X109680000Y-70160000D02*
X110030000Y-70160000D01*
G75*
G02*
X110205000Y-70335000I0J-175000D01*
G01*
X110205000Y-72035000D01*
G75*
G02*
X110030000Y-72210000I-175000J0D01*
G01*
X109680000Y-72210000D01*
G75*
G02*
X109505000Y-72035000I0J175000D01*
G01*
X109505000Y-70335000D01*
G75*
G02*
X109680000Y-70160000I175000J0D01*
G01*
G37*
G36*
G01*
X108410000Y-70160000D02*
X108760000Y-70160000D01*
G75*
G02*
X108935000Y-70335000I0J-175000D01*
G01*
X108935000Y-72035000D01*
G75*
G02*
X108760000Y-72210000I-175000J0D01*
G01*
X108410000Y-72210000D01*
G75*
G02*
X108235000Y-72035000I0J175000D01*
G01*
X108235000Y-70335000D01*
G75*
G02*
X108410000Y-70160000I175000J0D01*
G01*
G37*
G36*
G01*
X107140000Y-70160000D02*
X107490000Y-70160000D01*
G75*
G02*
X107665000Y-70335000I0J-175000D01*
G01*
X107665000Y-72035000D01*
G75*
G02*
X107490000Y-72210000I-175000J0D01*
G01*
X107140000Y-72210000D01*
G75*
G02*
X106965000Y-72035000I0J175000D01*
G01*
X106965000Y-70335000D01*
G75*
G02*
X107140000Y-70160000I175000J0D01*
G01*
G37*
G36*
G01*
X107140000Y-75110000D02*
X107490000Y-75110000D01*
G75*
G02*
X107665000Y-75285000I0J-175000D01*
G01*
X107665000Y-76985000D01*
G75*
G02*
X107490000Y-77160000I-175000J0D01*
G01*
X107140000Y-77160000D01*
G75*
G02*
X106965000Y-76985000I0J175000D01*
G01*
X106965000Y-75285000D01*
G75*
G02*
X107140000Y-75110000I175000J0D01*
G01*
G37*
G36*
G01*
X108410000Y-75110000D02*
X108760000Y-75110000D01*
G75*
G02*
X108935000Y-75285000I0J-175000D01*
G01*
X108935000Y-76985000D01*
G75*
G02*
X108760000Y-77160000I-175000J0D01*
G01*
X108410000Y-77160000D01*
G75*
G02*
X108235000Y-76985000I0J175000D01*
G01*
X108235000Y-75285000D01*
G75*
G02*
X108410000Y-75110000I175000J0D01*
G01*
G37*
G36*
G01*
X109680000Y-75110000D02*
X110030000Y-75110000D01*
G75*
G02*
X110205000Y-75285000I0J-175000D01*
G01*
X110205000Y-76985000D01*
G75*
G02*
X110030000Y-77160000I-175000J0D01*
G01*
X109680000Y-77160000D01*
G75*
G02*
X109505000Y-76985000I0J175000D01*
G01*
X109505000Y-75285000D01*
G75*
G02*
X109680000Y-75110000I175000J0D01*
G01*
G37*
G36*
G01*
X110950000Y-75110000D02*
X111300000Y-75110000D01*
G75*
G02*
X111475000Y-75285000I0J-175000D01*
G01*
X111475000Y-76985000D01*
G75*
G02*
X111300000Y-77160000I-175000J0D01*
G01*
X110950000Y-77160000D01*
G75*
G02*
X110775000Y-76985000I0J175000D01*
G01*
X110775000Y-75285000D01*
G75*
G02*
X110950000Y-75110000I175000J0D01*
G01*
G37*
%TD*%
M02*
