%TF.GenerationSoftware,KiCad,Pcbnew,(5.1.9)-1*%
%TF.CreationDate,2021-04-16T00:55:01+02:00*%
%TF.ProjectId,13_TOR_N,31335f54-4f52-45f4-9e2e-6b696361645f,rev?*%
%TF.SameCoordinates,Original*%
%TF.FileFunction,Copper,L1,Top*%
%TF.FilePolarity,Positive*%
%FSLAX46Y46*%
G04 Gerber Fmt 4.6, Leading zero omitted, Abs format (unit mm)*
G04 Created by KiCad (PCBNEW (5.1.9)-1) date 2021-04-16 00:55:01*
%MOMM*%
%LPD*%
G01*
G04 APERTURE LIST*
%TA.AperFunction,Profile*%
%ADD10C,0.050000*%
%TD*%
%TA.AperFunction,SMDPad,CuDef*%
%ADD11R,2.524000X1.700000*%
%TD*%
%TA.AperFunction,ComponentPad*%
%ADD12C,1.524000*%
%TD*%
%TA.AperFunction,ComponentPad*%
%ADD13R,1.700000X1.700000*%
%TD*%
%TA.AperFunction,ViaPad*%
%ADD14C,1.000000*%
%TD*%
%TA.AperFunction,Conductor*%
%ADD15C,0.400000*%
%TD*%
%TA.AperFunction,Conductor*%
%ADD16C,0.254000*%
%TD*%
%TA.AperFunction,Conductor*%
%ADD17C,0.100000*%
%TD*%
G04 APERTURE END LIST*
D10*
X115570000Y-60960000D02*
X120650000Y-60960000D01*
X115570000Y-62230000D02*
X115570000Y-60960000D01*
X114300000Y-62230000D02*
X115570000Y-62230000D01*
X114300000Y-60960000D02*
X114300000Y-62230000D01*
X115570000Y-81280000D02*
X120650000Y-81280000D01*
X115570000Y-80010000D02*
X115570000Y-81280000D01*
X114300000Y-80010000D02*
X115570000Y-80010000D01*
X114300000Y-81280000D02*
X114300000Y-80010000D01*
X101600000Y-62230000D02*
X101600000Y-60960000D01*
X100330000Y-62230000D02*
X101600000Y-62230000D01*
X100330000Y-64770000D02*
X100330000Y-62230000D01*
X101600000Y-64770000D02*
X100330000Y-64770000D01*
X100330000Y-72390000D02*
X100330000Y-67310000D01*
X101600000Y-72390000D02*
X100330000Y-72390000D01*
X101600000Y-74930000D02*
X101600000Y-72390000D01*
X100330000Y-74930000D02*
X101600000Y-74930000D01*
X120650000Y-60960000D02*
X120650000Y-81280000D01*
X101600000Y-60960000D02*
X114300000Y-60960000D01*
X101600000Y-80010000D02*
X101600000Y-81280000D01*
X100330000Y-80010000D02*
X101600000Y-80010000D01*
X101600000Y-64770000D02*
X101600000Y-67310000D01*
X101600000Y-67310000D02*
X100330000Y-67310000D01*
X114300000Y-81280000D02*
X101600000Y-81280000D01*
X100330000Y-80010000D02*
X100330000Y-74930000D01*
D11*
%TO.P,J1,1*%
%TO.N,GND*%
X102870000Y-71120000D03*
D12*
X101600000Y-71120000D03*
D13*
X104140000Y-71120000D03*
%TD*%
%TO.P,J2,1*%
%TO.N,TRIG*%
X104140000Y-63500000D03*
D12*
X101600000Y-63500000D03*
D11*
X102870000Y-63500000D03*
%TD*%
D13*
%TO.P,J3,1*%
%TO.N,OUT*%
X104140000Y-76200000D03*
D12*
X101600000Y-76200000D03*
D11*
X102870000Y-76200000D03*
%TD*%
%TO.P,R1,1*%
%TO.N,Net-(Q1-Pad4)*%
%TA.AperFunction,SMDPad,CuDef*%
G36*
G01*
X110360000Y-63737500D02*
X110360000Y-63262500D01*
G75*
G02*
X110597500Y-63025000I237500J0D01*
G01*
X111172500Y-63025000D01*
G75*
G02*
X111410000Y-63262500I0J-237500D01*
G01*
X111410000Y-63737500D01*
G75*
G02*
X111172500Y-63975000I-237500J0D01*
G01*
X110597500Y-63975000D01*
G75*
G02*
X110360000Y-63737500I0J237500D01*
G01*
G37*
%TD.AperFunction*%
%TO.P,R1,2*%
%TO.N,GND*%
%TA.AperFunction,SMDPad,CuDef*%
G36*
G01*
X112110000Y-63737500D02*
X112110000Y-63262500D01*
G75*
G02*
X112347500Y-63025000I237500J0D01*
G01*
X112922500Y-63025000D01*
G75*
G02*
X113160000Y-63262500I0J-237500D01*
G01*
X113160000Y-63737500D01*
G75*
G02*
X112922500Y-63975000I-237500J0D01*
G01*
X112347500Y-63975000D01*
G75*
G02*
X112110000Y-63737500I0J237500D01*
G01*
G37*
%TD.AperFunction*%
%TD*%
%TO.P,R2,2*%
%TO.N,Net-(Q1-Pad4)*%
%TA.AperFunction,SMDPad,CuDef*%
G36*
G01*
X108300000Y-63737500D02*
X108300000Y-63262500D01*
G75*
G02*
X108537500Y-63025000I237500J0D01*
G01*
X109112500Y-63025000D01*
G75*
G02*
X109350000Y-63262500I0J-237500D01*
G01*
X109350000Y-63737500D01*
G75*
G02*
X109112500Y-63975000I-237500J0D01*
G01*
X108537500Y-63975000D01*
G75*
G02*
X108300000Y-63737500I0J237500D01*
G01*
G37*
%TD.AperFunction*%
%TO.P,R2,1*%
%TO.N,TRIG*%
%TA.AperFunction,SMDPad,CuDef*%
G36*
G01*
X106550000Y-63737500D02*
X106550000Y-63262500D01*
G75*
G02*
X106787500Y-63025000I237500J0D01*
G01*
X107362500Y-63025000D01*
G75*
G02*
X107600000Y-63262500I0J-237500D01*
G01*
X107600000Y-63737500D01*
G75*
G02*
X107362500Y-63975000I-237500J0D01*
G01*
X106787500Y-63975000D01*
G75*
G02*
X106550000Y-63737500I0J237500D01*
G01*
G37*
%TD.AperFunction*%
%TD*%
%TO.P,J4,1*%
%TO.N,GND*%
X102870000Y-68580000D03*
D12*
X101600000Y-68580000D03*
D13*
X104140000Y-68580000D03*
%TD*%
%TO.P,J5,1*%
%TO.N,OUT*%
X104140000Y-78740000D03*
D12*
X101600000Y-78740000D03*
D11*
X102870000Y-78740000D03*
%TD*%
%TO.P,Q1,1*%
%TO.N,GND*%
%TA.AperFunction,SMDPad,CuDef*%
G36*
G01*
X110975000Y-70210000D02*
X111275000Y-70210000D01*
G75*
G02*
X111425000Y-70360000I0J-150000D01*
G01*
X111425000Y-72010000D01*
G75*
G02*
X111275000Y-72160000I-150000J0D01*
G01*
X110975000Y-72160000D01*
G75*
G02*
X110825000Y-72010000I0J150000D01*
G01*
X110825000Y-70360000D01*
G75*
G02*
X110975000Y-70210000I150000J0D01*
G01*
G37*
%TD.AperFunction*%
%TO.P,Q1,2*%
%TA.AperFunction,SMDPad,CuDef*%
G36*
G01*
X109705000Y-70210000D02*
X110005000Y-70210000D01*
G75*
G02*
X110155000Y-70360000I0J-150000D01*
G01*
X110155000Y-72010000D01*
G75*
G02*
X110005000Y-72160000I-150000J0D01*
G01*
X109705000Y-72160000D01*
G75*
G02*
X109555000Y-72010000I0J150000D01*
G01*
X109555000Y-70360000D01*
G75*
G02*
X109705000Y-70210000I150000J0D01*
G01*
G37*
%TD.AperFunction*%
%TO.P,Q1,3*%
%TA.AperFunction,SMDPad,CuDef*%
G36*
G01*
X108435000Y-70210000D02*
X108735000Y-70210000D01*
G75*
G02*
X108885000Y-70360000I0J-150000D01*
G01*
X108885000Y-72010000D01*
G75*
G02*
X108735000Y-72160000I-150000J0D01*
G01*
X108435000Y-72160000D01*
G75*
G02*
X108285000Y-72010000I0J150000D01*
G01*
X108285000Y-70360000D01*
G75*
G02*
X108435000Y-70210000I150000J0D01*
G01*
G37*
%TD.AperFunction*%
%TO.P,Q1,4*%
%TO.N,Net-(Q1-Pad4)*%
%TA.AperFunction,SMDPad,CuDef*%
G36*
G01*
X107165000Y-70210000D02*
X107465000Y-70210000D01*
G75*
G02*
X107615000Y-70360000I0J-150000D01*
G01*
X107615000Y-72010000D01*
G75*
G02*
X107465000Y-72160000I-150000J0D01*
G01*
X107165000Y-72160000D01*
G75*
G02*
X107015000Y-72010000I0J150000D01*
G01*
X107015000Y-70360000D01*
G75*
G02*
X107165000Y-70210000I150000J0D01*
G01*
G37*
%TD.AperFunction*%
%TO.P,Q1,5*%
%TO.N,OUT*%
%TA.AperFunction,SMDPad,CuDef*%
G36*
G01*
X107165000Y-75160000D02*
X107465000Y-75160000D01*
G75*
G02*
X107615000Y-75310000I0J-150000D01*
G01*
X107615000Y-76960000D01*
G75*
G02*
X107465000Y-77110000I-150000J0D01*
G01*
X107165000Y-77110000D01*
G75*
G02*
X107015000Y-76960000I0J150000D01*
G01*
X107015000Y-75310000D01*
G75*
G02*
X107165000Y-75160000I150000J0D01*
G01*
G37*
%TD.AperFunction*%
%TO.P,Q1,6*%
%TA.AperFunction,SMDPad,CuDef*%
G36*
G01*
X108435000Y-75160000D02*
X108735000Y-75160000D01*
G75*
G02*
X108885000Y-75310000I0J-150000D01*
G01*
X108885000Y-76960000D01*
G75*
G02*
X108735000Y-77110000I-150000J0D01*
G01*
X108435000Y-77110000D01*
G75*
G02*
X108285000Y-76960000I0J150000D01*
G01*
X108285000Y-75310000D01*
G75*
G02*
X108435000Y-75160000I150000J0D01*
G01*
G37*
%TD.AperFunction*%
%TO.P,Q1,7*%
%TA.AperFunction,SMDPad,CuDef*%
G36*
G01*
X109705000Y-75160000D02*
X110005000Y-75160000D01*
G75*
G02*
X110155000Y-75310000I0J-150000D01*
G01*
X110155000Y-76960000D01*
G75*
G02*
X110005000Y-77110000I-150000J0D01*
G01*
X109705000Y-77110000D01*
G75*
G02*
X109555000Y-76960000I0J150000D01*
G01*
X109555000Y-75310000D01*
G75*
G02*
X109705000Y-75160000I150000J0D01*
G01*
G37*
%TD.AperFunction*%
%TO.P,Q1,8*%
%TA.AperFunction,SMDPad,CuDef*%
G36*
G01*
X110975000Y-75160000D02*
X111275000Y-75160000D01*
G75*
G02*
X111425000Y-75310000I0J-150000D01*
G01*
X111425000Y-76960000D01*
G75*
G02*
X111275000Y-77110000I-150000J0D01*
G01*
X110975000Y-77110000D01*
G75*
G02*
X110825000Y-76960000I0J150000D01*
G01*
X110825000Y-75310000D01*
G75*
G02*
X110975000Y-75160000I150000J0D01*
G01*
G37*
%TD.AperFunction*%
%TD*%
D14*
%TO.N,OUT*%
X113030000Y-76835000D03*
X111760000Y-80010000D03*
X109855000Y-80010000D03*
X107950000Y-80010000D03*
X106045000Y-80010000D03*
X113030000Y-78740000D03*
X113030000Y-74930000D03*
%TO.N,Net-(Q1-Pad4)*%
X106045000Y-73025000D03*
X109855000Y-62230000D03*
%TO.N,GND*%
X106045000Y-66675000D03*
X107950000Y-66675000D03*
X109855000Y-66675000D03*
X111760000Y-66675000D03*
X111760000Y-68580000D03*
%TD*%
D15*
%TO.N,TRIG*%
X102870000Y-63500000D02*
X101600000Y-63500000D01*
X102870000Y-63500000D02*
X104140000Y-63500000D01*
X104140000Y-63500000D02*
X107075000Y-63500000D01*
%TO.N,OUT*%
X111125000Y-76135000D02*
X111125000Y-78740000D01*
X109855000Y-76135000D02*
X109855000Y-78740000D01*
X109855000Y-78740000D02*
X109220000Y-78740000D01*
X111125000Y-78740000D02*
X109220000Y-78740000D01*
X108585000Y-76135000D02*
X108585000Y-78740000D01*
X109220000Y-78740000D02*
X108585000Y-78740000D01*
X107315000Y-78740000D02*
X104140000Y-78740000D01*
X107315000Y-76135000D02*
X107315000Y-78740000D01*
X108585000Y-78740000D02*
X107315000Y-78740000D01*
X101600000Y-78740000D02*
X102870000Y-78740000D01*
X101600000Y-76200000D02*
X102870000Y-76200000D01*
X102870000Y-78740000D02*
X104140000Y-78740000D01*
X102870000Y-76200000D02*
X104140000Y-76200000D01*
X104140000Y-76200000D02*
X104140000Y-78740000D01*
X113030000Y-74930000D02*
X113030000Y-76835000D01*
X113030000Y-76835000D02*
X113030000Y-78740000D01*
X106045000Y-80010000D02*
X107950000Y-80010000D01*
X107950000Y-80010000D02*
X109855000Y-80010000D01*
X109855000Y-80010000D02*
X111760000Y-80010000D01*
X111760000Y-80010000D02*
X113030000Y-78740000D01*
X109855000Y-78740000D02*
X109855000Y-80010000D01*
%TO.N,Net-(Q1-Pad4)*%
X108825000Y-63500000D02*
X110885000Y-63500000D01*
X107315000Y-71185000D02*
X107315000Y-72390000D01*
X107315000Y-72390000D02*
X106680000Y-73025000D01*
X106680000Y-73025000D02*
X106045000Y-73025000D01*
X109855000Y-62230000D02*
X109855000Y-63500000D01*
X109855000Y-63500000D02*
X110885000Y-63500000D01*
%TO.N,GND*%
X111125000Y-71185000D02*
X111125000Y-68580000D01*
X109855000Y-68580000D02*
X109855000Y-71185000D01*
X108585000Y-71185000D02*
X108585000Y-68580000D01*
X108585000Y-68580000D02*
X109855000Y-68580000D01*
X101600000Y-71120000D02*
X102870000Y-71120000D01*
X102870000Y-68580000D02*
X101600000Y-68580000D01*
X102870000Y-68580000D02*
X104140000Y-68580000D01*
X102870000Y-71120000D02*
X104140000Y-71120000D01*
X104140000Y-68580000D02*
X108585000Y-68580000D01*
X112635000Y-63500000D02*
X113030000Y-63500000D01*
X113030000Y-63500000D02*
X113665000Y-64135000D01*
X113665000Y-64135000D02*
X113665000Y-66040000D01*
X104140000Y-68580000D02*
X104140000Y-71120000D01*
X106045000Y-66675000D02*
X111760000Y-66675000D01*
X109855000Y-66675000D02*
X109855000Y-68580000D01*
X111760000Y-68580000D02*
X111125000Y-68580000D01*
X110490000Y-68580000D02*
X111760000Y-68580000D01*
X111125000Y-68580000D02*
X110490000Y-68580000D01*
X110490000Y-68580000D02*
X109855000Y-68580000D01*
X111760000Y-68580000D02*
X113030000Y-68580000D01*
X113030000Y-68580000D02*
X113665000Y-67945000D01*
X113665000Y-67945000D02*
X113665000Y-66040000D01*
%TD*%
D16*
%TO.N,GND*%
X114173000Y-72898000D02*
X107978288Y-72898000D01*
X108012636Y-72856146D01*
X108090172Y-72711087D01*
X108110586Y-72643792D01*
X108137918Y-72553689D01*
X108150000Y-72431019D01*
X108150000Y-72431018D01*
X108154040Y-72390000D01*
X108153593Y-72385464D01*
X108193084Y-72311582D01*
X108237929Y-72163745D01*
X108253072Y-72010000D01*
X108253072Y-70360000D01*
X108237929Y-70206255D01*
X108193084Y-70058418D01*
X108120258Y-69922171D01*
X108022251Y-69802749D01*
X107902829Y-69704742D01*
X107766582Y-69631916D01*
X107618745Y-69587071D01*
X107465000Y-69571928D01*
X107165000Y-69571928D01*
X107011255Y-69587071D01*
X106863418Y-69631916D01*
X106727171Y-69704742D01*
X106607749Y-69802749D01*
X106509742Y-69922171D01*
X106436916Y-70058418D01*
X106392071Y-70206255D01*
X106376928Y-70360000D01*
X106376928Y-71933974D01*
X106376067Y-71933617D01*
X106156788Y-71890000D01*
X105933212Y-71890000D01*
X105713933Y-71933617D01*
X105507376Y-72019176D01*
X105321480Y-72143388D01*
X105163388Y-72301480D01*
X105039176Y-72487376D01*
X104953617Y-72693933D01*
X104913026Y-72898000D01*
X102260000Y-72898000D01*
X102260000Y-72422418D01*
X102263193Y-72390000D01*
X102250450Y-72260617D01*
X102212710Y-72136207D01*
X102151425Y-72021550D01*
X102068948Y-71921052D01*
X101968450Y-71838575D01*
X101853793Y-71777290D01*
X101729383Y-71739550D01*
X101632419Y-71730000D01*
X101600000Y-71726807D01*
X101567581Y-71730000D01*
X100990000Y-71730000D01*
X100990000Y-67970000D01*
X101567581Y-67970000D01*
X101600000Y-67973193D01*
X101632419Y-67970000D01*
X101729383Y-67960450D01*
X101853793Y-67922710D01*
X101968450Y-67861425D01*
X102068948Y-67778948D01*
X102151425Y-67678450D01*
X102212710Y-67563793D01*
X102250450Y-67439383D01*
X102263193Y-67310000D01*
X102260000Y-67277581D01*
X102260000Y-66167000D01*
X114173000Y-66167000D01*
X114173000Y-72898000D01*
%TA.AperFunction,Conductor*%
D17*
G36*
X114173000Y-72898000D02*
G01*
X107978288Y-72898000D01*
X108012636Y-72856146D01*
X108090172Y-72711087D01*
X108110586Y-72643792D01*
X108137918Y-72553689D01*
X108150000Y-72431019D01*
X108150000Y-72431018D01*
X108154040Y-72390000D01*
X108153593Y-72385464D01*
X108193084Y-72311582D01*
X108237929Y-72163745D01*
X108253072Y-72010000D01*
X108253072Y-70360000D01*
X108237929Y-70206255D01*
X108193084Y-70058418D01*
X108120258Y-69922171D01*
X108022251Y-69802749D01*
X107902829Y-69704742D01*
X107766582Y-69631916D01*
X107618745Y-69587071D01*
X107465000Y-69571928D01*
X107165000Y-69571928D01*
X107011255Y-69587071D01*
X106863418Y-69631916D01*
X106727171Y-69704742D01*
X106607749Y-69802749D01*
X106509742Y-69922171D01*
X106436916Y-70058418D01*
X106392071Y-70206255D01*
X106376928Y-70360000D01*
X106376928Y-71933974D01*
X106376067Y-71933617D01*
X106156788Y-71890000D01*
X105933212Y-71890000D01*
X105713933Y-71933617D01*
X105507376Y-72019176D01*
X105321480Y-72143388D01*
X105163388Y-72301480D01*
X105039176Y-72487376D01*
X104953617Y-72693933D01*
X104913026Y-72898000D01*
X102260000Y-72898000D01*
X102260000Y-72422418D01*
X102263193Y-72390000D01*
X102250450Y-72260617D01*
X102212710Y-72136207D01*
X102151425Y-72021550D01*
X102068948Y-71921052D01*
X101968450Y-71838575D01*
X101853793Y-71777290D01*
X101729383Y-71739550D01*
X101632419Y-71730000D01*
X101600000Y-71726807D01*
X101567581Y-71730000D01*
X100990000Y-71730000D01*
X100990000Y-67970000D01*
X101567581Y-67970000D01*
X101600000Y-67973193D01*
X101632419Y-67970000D01*
X101729383Y-67960450D01*
X101853793Y-67922710D01*
X101968450Y-67861425D01*
X102068948Y-67778948D01*
X102151425Y-67678450D01*
X102212710Y-67563793D01*
X102250450Y-67439383D01*
X102263193Y-67310000D01*
X102260000Y-67277581D01*
X102260000Y-66167000D01*
X114173000Y-66167000D01*
X114173000Y-72898000D01*
G37*
%TD.AperFunction*%
%TD*%
D16*
%TO.N,OUT*%
X114173000Y-79359315D02*
X114170617Y-79359550D01*
X114046207Y-79397290D01*
X113931550Y-79458575D01*
X113831052Y-79541052D01*
X113748575Y-79641550D01*
X113687290Y-79756207D01*
X113649550Y-79880617D01*
X113636807Y-80010000D01*
X113640001Y-80042429D01*
X113640001Y-80620000D01*
X102260000Y-80620000D01*
X102260000Y-80042418D01*
X102263193Y-80010000D01*
X102250450Y-79880617D01*
X102212710Y-79756207D01*
X102151425Y-79641550D01*
X102068948Y-79541052D01*
X101968450Y-79458575D01*
X101853793Y-79397290D01*
X101729383Y-79359550D01*
X101632419Y-79350000D01*
X101600000Y-79346807D01*
X101567581Y-79350000D01*
X100990000Y-79350000D01*
X100990000Y-75590000D01*
X101567581Y-75590000D01*
X101600000Y-75593193D01*
X101632419Y-75590000D01*
X101729383Y-75580450D01*
X101853793Y-75542710D01*
X101968450Y-75481425D01*
X102068948Y-75398948D01*
X102151425Y-75298450D01*
X102212710Y-75183793D01*
X102250450Y-75059383D01*
X102263193Y-74930000D01*
X102260000Y-74897581D01*
X102260000Y-74422000D01*
X114173000Y-74422000D01*
X114173000Y-79359315D01*
%TA.AperFunction,Conductor*%
D17*
G36*
X114173000Y-79359315D02*
G01*
X114170617Y-79359550D01*
X114046207Y-79397290D01*
X113931550Y-79458575D01*
X113831052Y-79541052D01*
X113748575Y-79641550D01*
X113687290Y-79756207D01*
X113649550Y-79880617D01*
X113636807Y-80010000D01*
X113640001Y-80042429D01*
X113640001Y-80620000D01*
X102260000Y-80620000D01*
X102260000Y-80042418D01*
X102263193Y-80010000D01*
X102250450Y-79880617D01*
X102212710Y-79756207D01*
X102151425Y-79641550D01*
X102068948Y-79541052D01*
X101968450Y-79458575D01*
X101853793Y-79397290D01*
X101729383Y-79359550D01*
X101632419Y-79350000D01*
X101600000Y-79346807D01*
X101567581Y-79350000D01*
X100990000Y-79350000D01*
X100990000Y-75590000D01*
X101567581Y-75590000D01*
X101600000Y-75593193D01*
X101632419Y-75590000D01*
X101729383Y-75580450D01*
X101853793Y-75542710D01*
X101968450Y-75481425D01*
X102068948Y-75398948D01*
X102151425Y-75298450D01*
X102212710Y-75183793D01*
X102250450Y-75059383D01*
X102263193Y-74930000D01*
X102260000Y-74897581D01*
X102260000Y-74422000D01*
X114173000Y-74422000D01*
X114173000Y-79359315D01*
G37*
%TD.AperFunction*%
%TD*%
M02*
