M48
; DRILL file {KiCad (5.1.9)-1} date 04/16/21 00:55:03
; FORMAT={-:-/ absolute / inch / decimal}
; #@! TF.CreationDate,2021-04-16T00:55:03+02:00
; #@! TF.GenerationSoftware,Kicad,Pcbnew,(5.1.9)-1
; #@! TF.FileFunction,Plated,1,2,PTH
FMAT,2
INCH
T1C0.0236
T2C0.0300
T3C0.0394
%
G90
G05
T1
X4.175Y-2.625
X4.175Y-2.875
X4.175Y-3.15
X4.25Y-2.625
X4.25Y-3.15
X4.325Y-2.45
X4.325Y-2.625
X4.325Y-3.15
X4.4Y-2.625
X4.4Y-2.7
X4.4Y-3.15
X4.45Y-2.95
X4.45Y-3.025
X4.45Y-3.1
T2
X4.0Y-2.5
X4.0Y-2.7
X4.0Y-2.8
X4.0Y-3.0
X4.0Y-3.1
T3
X4.1Y-2.5
X4.1Y-2.7
X4.1Y-2.8
X4.1Y-3.0
X4.1Y-3.1
T0
M30
