%TF.GenerationSoftware,KiCad,Pcbnew,(5.1.9)-1*%
%TF.CreationDate,2021-04-16T00:55:01+02:00*%
%TF.ProjectId,13_TOR_N,31335f54-4f52-45f4-9e2e-6b696361645f,rev?*%
%TF.SameCoordinates,Original*%
%TF.FileFunction,Paste,Top*%
%TF.FilePolarity,Positive*%
%FSLAX46Y46*%
G04 Gerber Fmt 4.6, Leading zero omitted, Abs format (unit mm)*
G04 Created by KiCad (PCBNEW (5.1.9)-1) date 2021-04-16 00:55:01*
%MOMM*%
%LPD*%
G01*
G04 APERTURE LIST*
%TA.AperFunction,Profile*%
%ADD10C,0.050000*%
%TD*%
%ADD11R,2.524000X1.700000*%
G04 APERTURE END LIST*
D10*
X115570000Y-60960000D02*
X120650000Y-60960000D01*
X115570000Y-62230000D02*
X115570000Y-60960000D01*
X114300000Y-62230000D02*
X115570000Y-62230000D01*
X114300000Y-60960000D02*
X114300000Y-62230000D01*
X115570000Y-81280000D02*
X120650000Y-81280000D01*
X115570000Y-80010000D02*
X115570000Y-81280000D01*
X114300000Y-80010000D02*
X115570000Y-80010000D01*
X114300000Y-81280000D02*
X114300000Y-80010000D01*
X101600000Y-62230000D02*
X101600000Y-60960000D01*
X100330000Y-62230000D02*
X101600000Y-62230000D01*
X100330000Y-64770000D02*
X100330000Y-62230000D01*
X101600000Y-64770000D02*
X100330000Y-64770000D01*
X100330000Y-72390000D02*
X100330000Y-67310000D01*
X101600000Y-72390000D02*
X100330000Y-72390000D01*
X101600000Y-74930000D02*
X101600000Y-72390000D01*
X100330000Y-74930000D02*
X101600000Y-74930000D01*
X120650000Y-60960000D02*
X120650000Y-81280000D01*
X101600000Y-60960000D02*
X114300000Y-60960000D01*
X101600000Y-80010000D02*
X101600000Y-81280000D01*
X100330000Y-80010000D02*
X101600000Y-80010000D01*
X101600000Y-64770000D02*
X101600000Y-67310000D01*
X101600000Y-67310000D02*
X100330000Y-67310000D01*
X114300000Y-81280000D02*
X101600000Y-81280000D01*
X100330000Y-80010000D02*
X100330000Y-74930000D01*
D11*
%TO.C,J1*%
X102870000Y-71120000D03*
X102870000Y-71120000D03*
%TD*%
%TO.C,J2*%
X102870000Y-63500000D03*
X102870000Y-63500000D03*
%TD*%
%TO.C,J3*%
X102870000Y-76200000D03*
X102870000Y-76200000D03*
%TD*%
%TO.C,R1*%
G36*
G01*
X110360000Y-63737500D02*
X110360000Y-63262500D01*
G75*
G02*
X110597500Y-63025000I237500J0D01*
G01*
X111172500Y-63025000D01*
G75*
G02*
X111410000Y-63262500I0J-237500D01*
G01*
X111410000Y-63737500D01*
G75*
G02*
X111172500Y-63975000I-237500J0D01*
G01*
X110597500Y-63975000D01*
G75*
G02*
X110360000Y-63737500I0J237500D01*
G01*
G37*
G36*
G01*
X112110000Y-63737500D02*
X112110000Y-63262500D01*
G75*
G02*
X112347500Y-63025000I237500J0D01*
G01*
X112922500Y-63025000D01*
G75*
G02*
X113160000Y-63262500I0J-237500D01*
G01*
X113160000Y-63737500D01*
G75*
G02*
X112922500Y-63975000I-237500J0D01*
G01*
X112347500Y-63975000D01*
G75*
G02*
X112110000Y-63737500I0J237500D01*
G01*
G37*
%TD*%
%TO.C,R2*%
G36*
G01*
X108300000Y-63737500D02*
X108300000Y-63262500D01*
G75*
G02*
X108537500Y-63025000I237500J0D01*
G01*
X109112500Y-63025000D01*
G75*
G02*
X109350000Y-63262500I0J-237500D01*
G01*
X109350000Y-63737500D01*
G75*
G02*
X109112500Y-63975000I-237500J0D01*
G01*
X108537500Y-63975000D01*
G75*
G02*
X108300000Y-63737500I0J237500D01*
G01*
G37*
G36*
G01*
X106550000Y-63737500D02*
X106550000Y-63262500D01*
G75*
G02*
X106787500Y-63025000I237500J0D01*
G01*
X107362500Y-63025000D01*
G75*
G02*
X107600000Y-63262500I0J-237500D01*
G01*
X107600000Y-63737500D01*
G75*
G02*
X107362500Y-63975000I-237500J0D01*
G01*
X106787500Y-63975000D01*
G75*
G02*
X106550000Y-63737500I0J237500D01*
G01*
G37*
%TD*%
%TO.C,J4*%
X102870000Y-68580000D03*
X102870000Y-68580000D03*
%TD*%
%TO.C,J5*%
X102870000Y-78740000D03*
X102870000Y-78740000D03*
%TD*%
%TO.C,Q1*%
G36*
G01*
X110975000Y-70210000D02*
X111275000Y-70210000D01*
G75*
G02*
X111425000Y-70360000I0J-150000D01*
G01*
X111425000Y-72010000D01*
G75*
G02*
X111275000Y-72160000I-150000J0D01*
G01*
X110975000Y-72160000D01*
G75*
G02*
X110825000Y-72010000I0J150000D01*
G01*
X110825000Y-70360000D01*
G75*
G02*
X110975000Y-70210000I150000J0D01*
G01*
G37*
G36*
G01*
X109705000Y-70210000D02*
X110005000Y-70210000D01*
G75*
G02*
X110155000Y-70360000I0J-150000D01*
G01*
X110155000Y-72010000D01*
G75*
G02*
X110005000Y-72160000I-150000J0D01*
G01*
X109705000Y-72160000D01*
G75*
G02*
X109555000Y-72010000I0J150000D01*
G01*
X109555000Y-70360000D01*
G75*
G02*
X109705000Y-70210000I150000J0D01*
G01*
G37*
G36*
G01*
X108435000Y-70210000D02*
X108735000Y-70210000D01*
G75*
G02*
X108885000Y-70360000I0J-150000D01*
G01*
X108885000Y-72010000D01*
G75*
G02*
X108735000Y-72160000I-150000J0D01*
G01*
X108435000Y-72160000D01*
G75*
G02*
X108285000Y-72010000I0J150000D01*
G01*
X108285000Y-70360000D01*
G75*
G02*
X108435000Y-70210000I150000J0D01*
G01*
G37*
G36*
G01*
X107165000Y-70210000D02*
X107465000Y-70210000D01*
G75*
G02*
X107615000Y-70360000I0J-150000D01*
G01*
X107615000Y-72010000D01*
G75*
G02*
X107465000Y-72160000I-150000J0D01*
G01*
X107165000Y-72160000D01*
G75*
G02*
X107015000Y-72010000I0J150000D01*
G01*
X107015000Y-70360000D01*
G75*
G02*
X107165000Y-70210000I150000J0D01*
G01*
G37*
G36*
G01*
X107165000Y-75160000D02*
X107465000Y-75160000D01*
G75*
G02*
X107615000Y-75310000I0J-150000D01*
G01*
X107615000Y-76960000D01*
G75*
G02*
X107465000Y-77110000I-150000J0D01*
G01*
X107165000Y-77110000D01*
G75*
G02*
X107015000Y-76960000I0J150000D01*
G01*
X107015000Y-75310000D01*
G75*
G02*
X107165000Y-75160000I150000J0D01*
G01*
G37*
G36*
G01*
X108435000Y-75160000D02*
X108735000Y-75160000D01*
G75*
G02*
X108885000Y-75310000I0J-150000D01*
G01*
X108885000Y-76960000D01*
G75*
G02*
X108735000Y-77110000I-150000J0D01*
G01*
X108435000Y-77110000D01*
G75*
G02*
X108285000Y-76960000I0J150000D01*
G01*
X108285000Y-75310000D01*
G75*
G02*
X108435000Y-75160000I150000J0D01*
G01*
G37*
G36*
G01*
X109705000Y-75160000D02*
X110005000Y-75160000D01*
G75*
G02*
X110155000Y-75310000I0J-150000D01*
G01*
X110155000Y-76960000D01*
G75*
G02*
X110005000Y-77110000I-150000J0D01*
G01*
X109705000Y-77110000D01*
G75*
G02*
X109555000Y-76960000I0J150000D01*
G01*
X109555000Y-75310000D01*
G75*
G02*
X109705000Y-75160000I150000J0D01*
G01*
G37*
G36*
G01*
X110975000Y-75160000D02*
X111275000Y-75160000D01*
G75*
G02*
X111425000Y-75310000I0J-150000D01*
G01*
X111425000Y-76960000D01*
G75*
G02*
X111275000Y-77110000I-150000J0D01*
G01*
X110975000Y-77110000D01*
G75*
G02*
X110825000Y-76960000I0J150000D01*
G01*
X110825000Y-75310000D01*
G75*
G02*
X110975000Y-75160000I150000J0D01*
G01*
G37*
%TD*%
M02*
